<svg width="201" height="203" viewBox="0 0 201 203" fill="none" xmlns="http://www.w3.org/2000/svg">
<path d="M198.271 31.4541C197.591 23.8541 194.211 16.7266 188.752 11.3839C183.293 6.0417 176.094 2.81508 168.482 2.29888C123.458 -0.76495 77.8022 -0.76495 32.7827 2.29888C25.1695 2.81547 17.9702 6.0417 12.5104 11.3839C7.05023 16.7262 3.66874 23.8541 2.98935 31.4541C-0.156279 66.6694 -0.156279 102.379 2.98935 137.591C3.67112 145.196 7.05658 152.326 12.5231 157.668C17.9865 163.008 25.1914 166.233 32.8097 166.749C43.8825 167.505 55.1971 168.083 66.4375 168.466C69.1066 168.559 71.5705 169.957 73.0289 172.205L88.7408 196.418C91.3639 200.463 95.8083 202.878 100.63 202.878C105.452 202.878 109.896 200.463 112.519 196.419L128.231 172.205C129.689 169.957 132.153 168.56 134.82 168.466C143.786 168.161 152.877 167.727 161.843 167.176C163.485 167.075 164.734 165.662 164.633 164.021C164.532 162.379 163.12 161.131 161.478 161.231C152.566 161.778 143.529 162.21 134.615 162.513C130.004 162.674 125.749 165.086 123.235 168.963L107.522 193.177C105.979 195.556 103.467 196.921 100.63 196.921C97.7933 196.921 95.281 195.556 93.7376 193.177L78.0257 168.963C75.5107 165.085 71.2564 162.674 66.6428 162.513C55.4675 162.132 44.2208 161.558 33.2139 160.807C27.0068 160.386 21.1368 157.758 16.686 153.408C12.2344 149.057 9.47675 143.251 8.92204 137.06C5.80778 102.2 5.80778 66.8477 8.92204 31.9842C9.47556 25.7962 12.2293 19.9917 16.6765 15.6406C21.123 11.2894 26.9866 8.6616 33.1865 8.2411C77.938 5.19514 123.322 5.19554 168.078 8.2411C174.277 8.6616 180.139 11.2894 184.585 15.6406C189.032 19.9917 191.785 25.7962 192.338 31.9842C195.452 66.8477 195.452 102.2 192.338 137.06C191.383 147.727 184.141 156.63 173.887 159.741C172.313 160.219 171.424 161.882 171.902 163.456C172.379 165.029 174.042 165.918 175.616 165.441C188.206 161.621 197.098 150.689 198.27 137.59C201.417 102.379 201.417 66.6694 198.271 31.4541V31.4541Z" fill="#1FAD50"/>
<path d="M27.9379 70.4429C26.7281 69.3287 24.8439 69.4061 23.7297 70.6164C20.7584 73.843 18.1131 77.4747 15.8685 81.4109C15.3471 82.3253 15.3467 83.4471 15.8685 84.3615C25.5853 101.402 41.9233 111.575 59.5725 111.575C77.2244 111.575 93.5637 101.402 103.28 84.3615C103.802 83.4471 103.802 82.3253 103.28 81.4109C93.5629 64.3732 77.2232 54.2017 59.5725 54.2017C50.738 54.2017 42.0035 56.7934 34.3138 61.6969C32.9268 62.5812 32.5194 64.422 33.4037 65.809C34.2876 67.1956 36.1284 67.6038 37.5158 66.7191C44.2478 62.4267 51.8748 60.1578 59.5725 60.1578C74.5478 60.1578 88.5137 68.6211 97.2354 82.8868C88.5145 97.1545 74.5486 105.619 59.5725 105.619C44.5992 105.619 30.6345 97.1549 21.9139 82.8872C23.7377 79.9067 25.8176 77.1423 28.1111 74.6515C29.2253 73.4412 29.1474 71.5575 27.9379 70.4429V70.4429Z" fill="#1FAD50"/>
<path d="M76.2846 82.8879C76.2846 73.6738 68.7882 66.1775 59.5741 66.1775C50.36 66.1775 42.8636 73.6738 42.8636 82.8879C42.8636 92.1025 50.36 99.5984 59.5741 99.5984C68.7882 99.5988 76.2846 92.1025 76.2846 82.8879ZM48.8197 82.8879C48.8197 76.958 53.6442 72.1336 59.5741 72.1336C65.5044 72.1336 70.3284 76.958 70.3284 82.8879C70.3284 88.8183 65.504 93.6423 59.5741 93.6423C53.6442 93.6427 48.8197 88.8183 48.8197 82.8879Z" fill="#1FAD50"/>
<path d="M146.645 59.7461C145 59.7461 143.667 61.0794 143.667 62.7241V107.988C143.667 109.633 145 110.966 146.645 110.966C148.289 110.966 149.623 109.633 149.623 107.988V89.9579L170.532 110.131C171.11 110.688 171.855 110.966 172.6 110.966C173.38 110.966 174.159 110.661 174.743 110.056C175.885 108.872 175.851 106.987 174.668 105.845L152.437 84.3973L173.009 65.4882C174.219 64.3752 174.299 62.491 173.186 61.28C172.073 60.0693 170.189 59.9899 168.978 61.1029L149.623 78.8938V62.7245C149.623 61.0794 148.289 59.7461 146.645 59.7461V59.7461Z" fill="#1FAD50"/>
<path d="M128.686 110.966C130.331 110.966 131.665 109.633 131.665 107.988V62.7241C131.665 61.0794 130.331 59.7461 128.686 59.7461H119.012C117.367 59.7461 116.034 61.0794 116.034 62.7241C116.034 64.3688 117.367 65.7022 119.012 65.7022H125.708V107.988C125.708 109.633 127.042 110.966 128.686 110.966Z" fill="#1FAD50"/>
</svg>
