<svg id="Capa_1" enable-background="new 0 0 510.928 510.928" height="512" viewBox="0 0 510.928 510.928" width="512" xmlns="http://www.w3.org/2000/svg"><g><path d="m501.364 79.213c-1.711-19.14-10.225-37.09-23.973-50.545-13.747-13.454-31.877-21.58-51.048-22.88-113.389-7.716-228.369-7.716-341.747 0-19.173 1.301-37.304 9.426-51.054 22.88-13.751 13.454-22.267 31.405-23.978 50.545-7.922 88.687-7.922 178.618 0 267.297 1.717 19.152 10.243 37.109 24.01 50.563 13.759 13.447 31.904 21.569 51.09 22.87 27.886 1.903 56.381 3.358 84.689 4.323 6.722.234 12.927 3.754 16.6 9.417l39.569 60.979c6.606 10.186 17.799 16.267 29.942 16.267s23.336-6.081 29.941-16.265l39.571-60.981c3.671-5.661 9.876-9.181 16.593-9.416 22.579-.769 45.476-1.862 68.055-3.25 4.134-.254 7.28-3.812 7.026-7.946s-3.81-7.278-7.946-7.026c-22.443 1.379-45.202 2.466-67.652 3.23-11.612.405-22.327 6.478-28.66 16.243l-39.571 60.981c-3.886 5.992-10.213 9.429-17.357 9.429s-13.471-3.437-17.358-9.43l-39.569-60.979c-6.334-9.767-17.048-15.84-28.667-16.245-28.144-.96-56.468-2.405-84.188-4.297-15.632-1.06-30.415-7.677-41.624-18.632-11.211-10.958-18.156-25.58-19.553-41.172-7.843-87.792-7.843-176.824 0-264.625 1.394-15.584 8.329-30.202 19.529-41.16 11.198-10.958 25.965-17.576 41.579-18.635 112.703-7.671 226.998-7.67 339.713 0 15.612 1.059 30.376 7.677 41.573 18.635s18.131 25.576 19.524 41.16c7.843 87.801 7.843 176.833 0 264.624-2.404 26.864-20.644 49.286-46.468 57.122-3.963 1.203-6.202 5.391-4.999 9.354s5.389 6.201 9.354 4.999c31.706-9.62 54.101-37.151 57.053-70.139 7.924-88.677 7.924-178.608.001-267.295z"/><path d="m72.395 177.403c-3.047-2.806-7.792-2.611-10.598.437-7.483 8.126-14.145 17.272-19.798 27.185-1.313 2.303-1.314 5.128 0 7.431 24.471 42.914 65.617 68.535 110.065 68.535 44.455 0 85.604-25.621 110.075-68.535 1.313-2.303 1.313-5.128 0-7.431-24.473-42.908-65.623-68.524-110.075-68.524-22.249 0-44.246 6.527-63.612 18.876-3.493 2.227-4.519 6.863-2.292 10.356 2.226 3.492 6.862 4.52 10.356 2.292 16.954-10.81 36.162-16.524 55.548-16.524 37.714 0 72.886 21.314 94.851 57.241-21.963 35.932-57.135 57.25-94.851 57.25-37.709 0-72.878-21.317-94.84-57.249 4.593-7.506 9.831-14.468 15.607-20.741 2.806-3.048 2.61-7.792-.436-10.599z"/><path d="m194.152 208.745c0-23.205-18.879-42.084-42.084-42.084s-42.084 18.879-42.084 42.084c0 23.206 18.879 42.084 42.084 42.084 23.205.001 42.084-18.878 42.084-42.084zm-69.168 0c0-14.934 12.15-27.084 27.084-27.084 14.935 0 27.084 12.15 27.084 27.084 0 14.935-12.15 27.084-27.084 27.084-14.934.001-27.084-12.149-27.084-27.084z"/><path d="m371.348 150.464c-4.142 0-7.5 3.358-7.5 7.5v113.993c0 4.142 3.358 7.5 7.5 7.5s7.5-3.358 7.5-7.5v-45.407l52.659 50.804c1.456 1.404 3.332 2.103 5.207 2.103 1.964 0 3.927-.767 5.398-2.292 2.876-2.981 2.791-7.729-.19-10.605l-55.987-54.014 51.809-47.621c3.049-2.803 3.249-7.548.446-10.598-2.803-3.049-7.547-3.249-10.598-.446l-48.744 44.805v-40.721c0-4.143-3.358-7.501-7.5-7.501z"/><path d="m326.122 279.457c4.142 0 7.5-3.358 7.5-7.5v-113.993c0-4.142-3.358-7.5-7.5-7.5h-24.365c-4.142 0-7.5 3.358-7.5 7.5s3.358 7.5 7.5 7.5h16.865v106.493c0 4.142 3.358 7.5 7.5 7.5z"/></g></svg>